<svg xmlns="http://www.w3.org/2000/svg" viewBox="0 0 48 48"><g fill="none" stroke="#000" stroke-linecap="round" stroke-linejoin="round" stroke-miterlimit="10" stroke-width="1.5" class="nc-icon-wrapper" transform="translate(.5 .5)"><path d="M26.749 23.994A5 5 0 0 1 22 19a5 5 0 0 1-10 0c0 2.761-2.239 5-5 5s-5-2.083-5-6l8-16h24l8 16c0 .666-.065 1.28-.186 1.839" data-cap="butt" style="fill:#000"/><path d="M8 24v18h18" data-cap="butt" style="fill:#000"/><path d="M46 28c0 6.2-10 16.2-10 16.2S26 34.2 26 28c0-6.4 5.2-10 10-10s10 3.6 10 10" data-color="color-2" style="fill:#000"/><circle cx="36" cy="28" r="3" data-color="color-2" style="fill:#000"/></g></svg>